<mxfile host="app.diagrams.net" modified="2024-02-03T18:49:42.428Z" agent="Mozilla/5.0 (X11; Linux x86_64) AppleWebKit/537.36 (KHTML, like Gecko) Chrome/120.0.0.0 Safari/537.36" version="23.1.1" etag="n6TcNQf1Uj4bG2ZuKUG3" type="github">
  <diagram name="第 1 页" id="OqDtIJGSf-YPzuiZSjEt">
    <mxGraphModel>
      <root>
        <mxCell id="0" />
        <mxCell id="1" parent="0" />
      </root>
    </mxGraphModel>
  </diagram>
</mxfile>
